<!DOCTYPE svg PUBLIC "-//W3C//DTD SVG 1.1//EN" "http://www.w3.org/Graphics/SVG/1.1/DTD/svg11.dtd">
<svg version="1.1" id="Шар_1" xmlns="http://www.w3.org/2000/svg" xmlns:xlink="http://www.w3.org/1999/xlink" x="0px" y="0px"
	 width="180.487px" height="60.035px" viewBox="0 0 180.487 60.035" enable-background="new 0 0 180.487 60.035"
	 xml:space="preserve">
<g>
	<path fill="#E8F7EE" d="M31.68,15.182h-4.752c-2.304,0-4.404,0.3-6.3,0.9c-1.897,0.601-3.577,1.368-5.04,2.304
		c-1.465,0.936-2.736,2.004-3.816,3.204c-1.08,1.2-1.933,2.4-2.556,3.6c-1.44,2.689-2.16,5.641-2.16,8.856
		c0,2.016,0.252,3.973,0.756,5.868c0.504,1.897,1.308,3.661,2.412,5.292c1.152,1.728,2.4,3.096,3.744,4.104
		c1.343,1.008,2.724,1.776,4.14,2.304c1.415,0.529,2.808,0.876,4.176,1.044c1.368,0.168,2.652,0.252,3.851,0.252h5.545v6.336H27
		c-1.729,0-3.613-0.108-5.652-0.324c-2.041-0.216-4.116-0.72-6.228-1.512c-2.113-0.792-4.165-1.968-6.156-3.528
		c-1.993-1.56-3.805-3.684-5.436-6.372c-1.249-2.016-2.149-4.176-2.7-6.48C0.276,38.726,0,36.399,0,34.046
		c0-2.592,0.335-4.979,1.008-7.164c0.671-2.184,1.571-4.14,2.7-5.868c1.127-1.728,2.387-3.251,3.78-4.572
		c1.392-1.319,2.808-2.412,4.248-3.276c2.304-1.44,4.86-2.52,7.668-3.24c2.808-0.72,5.604-1.08,8.387-1.08h3.889V15.182z"/>
</g>
<g>
	<path fill="#FCBA04" d="M52.641,27.888c-0.813,0.645-1.694,1.127-2.646,1.449c-0.952,0.322-2.017,0.483-3.192,0.483
		c-1.428,0-2.758-0.238-3.99-0.714c-1.232-0.476-2.31-1.162-3.233-2.058c-0.924-0.896-1.652-1.967-2.185-3.213
		c-0.532-1.246-0.798-2.653-0.798-4.221c0-1.624,0.287-3.101,0.861-4.431c0.573-1.33,1.357-2.471,2.352-3.423
		c0.994-0.952,2.143-1.68,3.444-2.184c1.302-0.504,2.681-0.756,4.137-0.756c1.316,0,2.597,0.21,3.843,0.63
		c1.246,0.42,2.359,1.1,3.34,2.037c0.979,0.938,1.771,2.149,2.373,3.633c0.602,1.484,0.902,3.276,0.902,5.376V29.4h-3.695v-9.03
		c0-1.68-0.231-3.045-0.693-4.095s-1.036-1.869-1.722-2.457c-0.687-0.588-1.429-0.98-2.227-1.176s-1.547-0.294-2.247-0.294
		c-0.952,0-1.841,0.161-2.667,0.483c-0.826,0.322-1.554,0.784-2.184,1.386c-0.63,0.603-1.128,1.337-1.491,2.205
		c-0.364,0.868-0.546,1.848-0.546,2.94c0,1.26,0.224,2.331,0.672,3.213c0.447,0.882,1.015,1.596,1.701,2.142
		c0.686,0.546,1.435,0.945,2.247,1.197c0.812,0.252,1.596,0.378,2.352,0.378c1.064,0,2.022-0.196,2.877-0.588
		s1.659-0.952,2.415-1.68V27.888z"/>
	<path fill="#FCBA04" d="M60.621,25.872h9.66c0.195,0,0.469,0,0.819,0c0.35,0,0.692-0.049,1.028-0.147s0.623-0.266,0.861-0.504
		c0.237-0.237,0.357-0.581,0.357-1.029c0-0.728-0.225-1.239-0.672-1.533c-0.448-0.294-0.98-0.552-1.597-0.777
		c-0.98-0.336-1.939-0.63-2.877-0.882c-0.938-0.252-1.82-0.525-2.646-0.819c-0.826-0.294-1.575-0.644-2.247-1.05
		c-0.672-0.406-1.232-0.903-1.681-1.491c-0.672-0.896-1.008-1.876-1.008-2.94c0-0.56,0.069-1.105,0.21-1.638
		c0.14-0.532,0.364-1.022,0.672-1.47c0.42-0.56,0.889-0.994,1.407-1.302c0.518-0.308,1.063-0.539,1.638-0.693
		c0.574-0.153,1.135-0.252,1.681-0.294s1.057-0.063,1.533-0.063h8.441v3.528h-9.492c-0.504,0-0.91,0.056-1.218,0.168
		c-0.309,0.112-0.539,0.252-0.692,0.42c-0.154,0.168-0.26,0.343-0.315,0.525c-0.057,0.183-0.084,0.33-0.084,0.441
		c0,0.672,0.237,1.162,0.714,1.47c0.476,0.308,0.966,0.546,1.47,0.714c0.896,0.309,1.813,0.588,2.751,0.84
		c0.938,0.252,1.834,0.525,2.688,0.819c0.854,0.294,1.631,0.637,2.331,1.029c0.699,0.393,1.273,0.882,1.722,1.47
		c0.7,0.924,1.05,1.96,1.05,3.108c0,0.588-0.07,1.162-0.21,1.722s-0.378,1.078-0.714,1.554c-0.393,0.561-0.833,0.994-1.323,1.302
		s-0.986,0.539-1.49,0.693c-0.504,0.154-1.009,0.252-1.513,0.294S70.911,29.4,70.491,29.4h-9.87V25.872z"/>
	<path fill="#FCBA04" d="M79.898,29.4V0h3.696v11.046c0.896-0.896,1.792-1.491,2.688-1.785c0.896-0.294,1.777-0.441,2.646-0.441
		c0.728,0,1.449,0.063,2.163,0.189s1.393,0.372,2.037,0.735c0.924,0.504,1.651,1.099,2.184,1.785
		c0.532,0.687,0.931,1.421,1.197,2.205c0.266,0.784,0.434,1.575,0.504,2.373c0.069,0.798,0.105,1.547,0.105,2.247V29.4h-3.696
		V18.564c0-0.336-0.028-0.854-0.084-1.554c-0.057-0.699-0.238-1.393-0.546-2.079c-0.309-0.686-0.784-1.287-1.428-1.806
		c-0.645-0.518-1.541-0.777-2.688-0.777c-1.456,0-2.667,0.546-3.633,1.638c-0.966,1.092-1.449,2.8-1.449,5.124V29.4H79.898z"/>
</g>
<g>
	<path fill="#E8F7EE" d="M47.097,39.035c1.456,0,2.82,0.273,4.095,0.819c1.274,0.546,2.388,1.296,3.34,2.247
		c0.951,0.952,1.7,2.065,2.247,3.339c0.546,1.274,0.818,2.639,0.818,4.095c0,1.456-0.272,2.821-0.818,4.095
		c-0.547,1.274-1.296,2.387-2.247,3.339c-0.952,0.952-2.065,1.701-3.34,2.247s-2.639,0.819-4.095,0.819s-2.821-0.273-4.095-0.819
		c-1.274-0.546-2.388-1.295-3.339-2.247c-0.952-0.952-1.701-2.064-2.247-3.339c-0.546-1.274-0.819-2.639-0.819-4.095
		c0-1.456,0.273-2.82,0.819-4.095c0.546-1.274,1.295-2.387,2.247-3.339c0.951-0.951,2.064-1.701,3.339-2.247
		C44.276,39.308,45.641,39.035,47.097,39.035z M47.097,42.563c-0.98,0-1.883,0.168-2.709,0.504s-1.533,0.813-2.121,1.428
		c-0.588,0.616-1.05,1.352-1.386,2.205c-0.336,0.854-0.504,1.799-0.504,2.835c0,1.036,0.168,1.981,0.504,2.835
		c0.336,0.854,0.798,1.589,1.386,2.205c0.588,0.616,1.295,1.092,2.121,1.428c0.826,0.336,1.729,0.504,2.709,0.504
		c1.008,0,1.925-0.175,2.751-0.525s1.533-0.833,2.121-1.449c0.588-0.616,1.043-1.351,1.365-2.205
		c0.321-0.854,0.482-1.785,0.482-2.793c0-1.008-0.161-1.938-0.482-2.793c-0.322-0.854-0.777-1.589-1.365-2.205
		c-0.588-0.615-1.295-1.099-2.121-1.449S48.105,42.563,47.097,42.563z"/>
	<path fill="#E8F7EE" d="M73.893,48.821c0-0.42-0.021-0.889-0.063-1.407c-0.042-0.518-0.146-1.035-0.314-1.554
		c-0.168-0.518-0.435-1.022-0.798-1.512c-0.364-0.489-0.868-0.903-1.513-1.239c-0.336-0.196-0.692-0.336-1.07-0.42
		s-0.764-0.126-1.155-0.126c-0.393,0-0.777,0.042-1.155,0.126s-0.734,0.224-1.07,0.42c-0.645,0.336-1.148,0.75-1.513,1.239
		c-0.364,0.49-0.63,0.994-0.798,1.512c-0.168,0.519-0.272,1.036-0.314,1.554c-0.042,0.519-0.063,0.987-0.063,1.407v10.794h-3.696
		V48.821c0-0.7,0.042-1.442,0.126-2.226c0.084-0.784,0.267-1.554,0.546-2.31c0.28-0.756,0.679-1.477,1.197-2.163
		c0.518-0.686,1.225-1.309,2.121-1.869c0.699-0.42,1.441-0.728,2.227-0.924c0.783-0.195,1.581-0.294,2.394-0.294
		c0.812,0,1.609,0.099,2.394,0.294c0.784,0.196,1.526,0.504,2.227,0.924c0.867,0.56,1.567,1.183,2.1,1.869
		c0.532,0.687,0.938,1.407,1.218,2.163c0.28,0.756,0.463,1.526,0.547,2.31c0.084,0.784,0.126,1.526,0.126,2.226v10.794h-3.696
		V48.821z"/>
	<path fill="#E8F7EE" d="M98.505,39.455l-6.931,18.018c-0.112,0.309-0.23,0.616-0.356,0.924s-0.294,0.581-0.504,0.819
		c-0.21,0.238-0.483,0.434-0.819,0.588c-0.336,0.154-0.771,0.231-1.302,0.231c-0.532,0-0.966-0.077-1.302-0.231
		c-0.337-0.154-0.609-0.35-0.819-0.588c-0.21-0.238-0.378-0.511-0.504-0.819s-0.246-0.616-0.357-0.924l-6.93-18.018h4.032
		l5.88,15.54l5.88-15.54H98.505z"/>
	<path fill="#E8F7EE" d="M105.601,52.979l-1.512-2.94l9.954-5.544c-0.756-0.812-1.54-1.336-2.352-1.575
		c-0.813-0.238-1.583-0.357-2.311-0.357c-0.98,0-1.876,0.175-2.688,0.525c-0.813,0.35-1.506,0.84-2.079,1.47
		c-0.574,0.63-1.022,1.365-1.344,2.205c-0.322,0.84-0.483,1.764-0.483,2.772c0,1.456,0.294,2.688,0.882,3.696
		c0.588,1.008,1.302,1.778,2.143,2.31c1.063,0.645,2.253,0.966,3.569,0.966c0.672,0,1.337-0.063,1.995-0.189
		c0.657-0.126,1.267-0.357,1.827-0.693c0.84-0.504,1.539-1.231,2.1-2.184c0.561-0.952,0.868-2.03,0.924-3.234l3.696,0.462
		c-0.111,1.204-0.363,2.261-0.755,3.171c-0.391,0.91-0.845,1.687-1.362,2.331c-0.517,0.644-1.04,1.169-1.571,1.575
		c-0.531,0.406-0.992,0.721-1.383,0.945c-0.812,0.476-1.678,0.819-2.6,1.029s-1.857,0.315-2.808,0.315
		c-1.621,0-3.186-0.364-4.695-1.092c-1.705-0.84-3.088-2.072-4.149-3.696c-1.062-1.624-1.593-3.528-1.593-5.712
		c0-1.484,0.266-2.87,0.798-4.158c0.532-1.288,1.267-2.401,2.205-3.339c0.938-0.938,2.044-1.673,3.318-2.205
		c1.273-0.531,2.652-0.798,4.137-0.798c0.979,0,1.946,0.126,2.898,0.378c0.951,0.252,1.854,0.645,2.709,1.176
		c0.854,0.532,1.631,1.197,2.331,1.995c0.699,0.798,1.302,1.743,1.806,2.835L105.601,52.979z"/>
	<path fill="#E8F7EE" d="M122.737,39.455h3.528v2.31h0.084c0.392-0.615,0.825-1.105,1.302-1.47c0.476-0.364,0.966-0.644,1.471-0.84
		c0.504-0.195,1.008-0.315,1.512-0.357s0.966-0.063,1.386-0.063h0.63v3.528h-0.504c-0.309,0-0.784,0.042-1.428,0.126
		c-0.645,0.084-1.281,0.364-1.911,0.84c-0.63,0.477-1.184,1.218-1.659,2.226c-0.477,1.008-0.714,2.436-0.714,4.284v9.576h-3.696
		V39.455z"/>
	<path fill="#E8F7EE" d="M145.165,42.983h-7.224v9.576c0,0.532,0.007,1.015,0.021,1.449c0.014,0.435,0.111,0.805,0.294,1.113
		c0.182,0.309,0.504,0.546,0.966,0.714c0.462,0.168,1.154,0.252,2.079,0.252h3.863v3.528h-4.535c-0.421,0-0.987-0.042-1.701-0.126
		s-1.414-0.336-2.101-0.756s-1.288-1.085-1.806-1.995c-0.519-0.91-0.777-2.205-0.777-3.885V34.415h3.696v5.04h7.224V42.983z"/>
	<path fill="#E8F7EE" d="M153.438,52.979l-1.512-2.94l9.954-5.544c-0.756-0.812-1.54-1.336-2.352-1.575
		c-0.813-0.238-1.583-0.357-2.311-0.357c-0.98,0-1.876,0.175-2.688,0.525c-0.813,0.35-1.506,0.84-2.079,1.47
		c-0.574,0.63-1.022,1.365-1.344,2.205c-0.322,0.84-0.483,1.764-0.483,2.772c0,1.456,0.294,2.688,0.882,3.696
		c0.588,1.008,1.302,1.778,2.143,2.31c1.063,0.645,2.253,0.966,3.569,0.966c0.672,0,1.337-0.063,1.995-0.189
		c0.657-0.126,1.267-0.357,1.827-0.693c0.84-0.504,1.539-1.231,2.1-2.184c0.561-0.952,0.868-2.03,0.924-3.234l3.696,0.462
		c-0.111,1.204-0.363,2.261-0.755,3.171c-0.391,0.91-0.845,1.687-1.362,2.331c-0.517,0.644-1.04,1.169-1.571,1.575
		c-0.531,0.406-0.992,0.721-1.383,0.945c-0.812,0.476-1.678,0.819-2.6,1.029s-1.857,0.315-2.808,0.315
		c-1.621,0-3.186-0.364-4.695-1.092c-1.705-0.84-3.088-2.072-4.149-3.696c-1.062-1.624-1.593-3.528-1.593-5.712
		c0-1.484,0.266-2.87,0.798-4.158c0.532-1.288,1.267-2.401,2.205-3.339c0.938-0.938,2.044-1.673,3.318-2.205
		c1.273-0.531,2.652-0.798,4.137-0.798c0.979,0,1.946,0.126,2.898,0.378c0.951,0.252,1.854,0.645,2.709,1.176
		c0.854,0.532,1.631,1.197,2.331,1.995c0.699,0.798,1.302,1.743,1.806,2.835L153.438,52.979z"/>
	<path fill="#E8F7EE" d="M170.575,39.455h3.528v2.31h0.084c0.392-0.615,0.825-1.105,1.302-1.47c0.476-0.364,0.966-0.644,1.471-0.84
		c0.504-0.195,1.008-0.315,1.512-0.357s0.966-0.063,1.386-0.063h0.63v3.528h-0.504c-0.309,0-0.784,0.042-1.428,0.126
		c-0.645,0.084-1.281,0.364-1.911,0.84c-0.63,0.477-1.184,1.218-1.659,2.226c-0.477,1.008-0.714,2.436-0.714,4.284v9.576h-3.696
		V39.455z"/>
</g>
<path fill="#FCBA04" d="M0,34.017c0,2.353,0.276,4.682,0.828,6.986c0.551,2.304,1.451,4.465,2.7,6.481
	c1.631,2.688,3.443,4.813,5.436,6.372c1.991,1.56,4.043,2.736,6.156,3.528c2.112,0.792,4.188,1.511,6.228,1.727
	c2.04,0.216,3.924,0.539,5.652,0.539h5.005v-7h-5.871c-1.199,0-2.483,0.034-3.851-0.135c-1.368-0.168-2.761-0.457-4.176-0.985
	c-1.417-0.528-2.797-1.267-4.14-2.275c-1.344-1.008-2.592-2.361-3.744-4.089c-1.104-1.631-1.908-3.388-2.412-5.285
	c-0.504-1.896-0.756-3.848-0.756-5.865c0-0.123,0.008-0.244,0.01-0.367H0.012C0.011,33.773,0,33.892,0,34.017z"/>
</svg>
